#!OML:ASF H:\Punching\Project 1\Capture day 1\Session 1\female.ASF
:FULLY-SPECIFIED
:DEGREES
1411
root 2.74768 15.534 6.77461 12.1388 -9.56543 -1.49259
lowerback -1.89326 0.606248 -0.7877
upperback -5.86926 0.805945 0.384132
thorax -5.01497 0.443842 0.818047
lowerneck -10.0607 5.68287 13.4518
upperneck 32.2286 7.8445 -8.36126
head 13.4172 4.06475 -4.50087
rclavicle -1.45703e-014 -9.24349e-015
rhumerus -17.3412 -2.77546 -80.3599
rradius 46.4731
rwrist -43.1859
rhand -12.9549 -20.9097
rfingers 7.12502
rthumb 13.1367 -50.4759
lclavicle -1.45703e-014 -9.24349e-015
lhumerus -33.0073 -3.34145 80.3791
lradius 71.3663
lwrist 8.09325
lhand -9.51189 20.921
lfingers 7.12502
lthumb 16.4536 50.2432
rfemur -26.677 -3.73212 15.5211
rtibia 48.0146
rfoot -17.1937 -9.78235
rtoes -11.9734
lfemur -12.3733 -4.57719 -20.4299
ltibia 26.0232
lfoot -24.1426 22.9778
ltoes 2.74874
1412
root 2.74064 15.5311 6.78564 11.9989 -9.57961 -1.27244
lowerback -1.71375 0.641226 -1.09896
upperback -5.8 0.843306 0.267417
thorax -5.04833 0.473845 0.868836
lowerneck -10.0949 5.63703 13.4559
upperneck 32.2631 7.74697 -8.28355
head 13.4223 4.03121 -4.48582
rclavicle -8.73255e-015 -2.18663e-015
rhumerus -16.1246 -2.12955 -80.6988
rradius 47.538
rwrist -44.0119
rhand -12.9818 -20.997
rfingers 7.12502
rthumb 13.1108 -50.5648
lclavicle -8.73255e-015 -2.18663e-015
lhumerus -32.121 -4.14672 80.3894
lradius 73.4397
lwrist 8.17245
lhand -9.92929 20.8806
lfingers 7.12502
lthumb 16.0517 50.2357
rfemur -27.8001 -4.08174 15.1725
rtibia 49.8728
rfoot -16.5031 -9.07628
rtoes -11.6455
lfemur -12.0644 -4.44984 -20.6606
ltibia 25.7205
lfoot -23.9612 22.8652
ltoes 2.44121
1413
root 2.73135 15.528 6.7988 11.8789 -9.56809 -1.07749
lowerback -1.54951 0.673882 -1.37282
upperback -5.73499 0.877152 0.151809
thorax -5.07721 0.500321 0.899925
lowerneck -10.1266 5.58768 13.4529
upperneck 32.2939 7.64424 -8.20032
head 13.4241 3.99525 -4.46801
rclavicle 6.15145e-015 9.74045e-015
rhumerus -14.918 -1.39733 -81.0529
rradius 48.6206
rwrist -44.6819
rhand -13.1024 -21.1306
rfingers 7.12502
rthumb 12.9945 -50.7059
lclavicle 6.15145e-015 9.74045e-015
lhumerus -31.2281 -4.9841 80.4062
lradius 75.5101
lwrist 8.19078
lhand -10.3132 20.865
lfingers 7.12502
lthumb 15.682 50.2495
rfemur -28.9004 -4.40061 14.8522
rtibia 51.5582
rfoot -15.9368 -8.39802
rtoes -11.3704
lfemur -11.7812 -4.33305 -20.8516
ltibia 25.451
lfoot -23.7954 22.752
ltoes 2.10361
1414
root 2.71984 15.5252 6.81447 11.7856 -9.52618 -0.92265
lowerback -1.40629 0.702099 -1.59575
upperback -5.67355 0.905561 0.0436095
thorax -5.09721 0.521835 0.910453
lowerneck -10.1668 5.53819 13.443
upperneck 32.3271 7.54038 -8.11234
head 13.4281 3.95841 -4.44717
rclavicle -1.13369e-016 -1.5704e-014
rhumerus -13.722 -0.582222 -81.4135
rradius 49.7193
rwrist -45.2092
rhand -13.3369 -21.3299
rfingers 7.12502
rthumb 12.7684 -50.9194
lclavicle -1.13369e-016 -1.5704e-014
lhumerus -30.3298 -5.84994 80.431
lradius 77.5702
lwrist 8.16017
lhand -10.6923 20.8482
lfingers 7.12502
lthumb 15.3169 50.2609
rfemur -29.968 -4.68741 14.5761
rtibia 53.0268
rfoot -15.5327 -7.76925
rtoes -11.2224
lfemur -11.5263 -4.23008 -20.9855
ltibia 25.2105
lfoot -23.6456 22.6372
ltoes 1.74405
1415
root 2.7059 15.5233 6.83239 11.7247 -9.45581 -0.803247
lowerback -1.28322 0.724736 -1.78044
upperback -5.61877 0.927235 -0.0545254
thorax -5.1122 0.538446 0.910329
lowerneck -10.2035 5.48837 13.4222
upperneck 32.3485 7.43766 -8.02175
head 13.4258 3.921 -4.4228
rclavicle 2.27003e-014 -1.82882e-014
rhumerus -12.5378 0.304461 -81.7704
rradius 50.8295
rwrist -45.6099
rhand -13.5547 -21.5388
rfingers 7.12502
rthumb 12.5584 -51.1414
lclavicle 2.27003e-014 -1.82882e-014
lhumerus -29.4307 -6.73353 80.467
lradius 79.6127
lwrist 8.0849
lhand -11.0943 20.7839
lfingers 7.12502
lthumb 14.9296 50.2258
rfemur -31.0059 -4.93565 14.3377
rtibia 54.2422
rfoot -15.28 -7.21625
rtoes -11.2508
lfemur -11.3037 -4.14282 -21.0662
ltibia 24.9909
lfoot -23.5057 22.5215
ltoes 1.36819
1416
root 2.68972 15.5223 6.85287 11.6883 -9.35639 -0.719361
lowerback -1.17409 0.740109 -1.92577
upperback -5.56782 0.940194 -0.140691
thorax -5.12254 0.549171 0.900957
lowerneck -10.2346 5.44221 13.4054
upperneck 32.3574 7.34493 -7.94723
head 13.4192 3.88653 -4.40379
rclavicle 2.66806e-015 -4.17448e-015
rhumerus -11.3691 1.25191 -82.1174
rradius 51.9648
rwrist -45.9375
rhand -13.6551 -21.6755
rfingers 7.12502
rthumb 12.4616 -51.284
lclavicle 2.66806e-015 -4.17448e-015
lhumerus -28.535 -7.63089 80.5147
lradius 81.6302
lwrist 7.97862
lhand -11.521 20.6552
lfingers 7.12502
lthumb 14.5185 50.1272
rfemur -31.9972 -5.14793 14.1322
rtibia 55.1725
rfoot -15.1352 -6.75466
rtoes -11.429
lfemur -11.0996 -4.07681 -21.0951
ltibia 24.7855
lfoot -23.3767 22.4081
ltoes 0.981293
1417
root 2.67133 15.5225 6.87557 11.6797 -9.23218 -0.672209
lowerback -1.07395 0.750669 -2.03428
upperback -5.52448 0.947749 -0.213785
thorax -5.13515 0.555904 0.884729
lowerneck -10.261 5.39784 13.3894
upperneck 32.3522 7.25829 -7.88358
head 13.4069 3.85346 -4.388
rclavicle 9.61698e-016 -7.7526e-015
rhumerus -10.2257 2.24668 -82.4469
rradius 53.1327
rwrist -46.2117
rhand -13.5787 -21.6638
rfingers 7.12502
rthumb 12.5353 -51.2678
lclavicle 9.61698e-016 -7.7526e-015
lhumerus -27.6538 -8.53671 80.5799
lradius 83.6303
lwrist 7.84876
lhand -11.9752 20.479
lfingers 7.12502
lthumb 14.0809 49.9819
rfemur -32.9428 -5.32145 13.9581
rtibia 55.7955
rfoot -15.0263 -6.39934
rtoes -11.6043
lfemur -10.916 -4.02844 -21.071
ltibia 24.5889
lfoot -23.2555 22.2962
ltoes 0.586672
1418
root 2.65088 15.5236 6.90035 11.6895 -9.07918 -0.657536
lowerback -0.972781 0.755073 -2.10761
upperback -5.48586 0.947954 -0.274951
thorax -5.15258 0.557744 0.861352
lowerneck -10.2794 5.35573 13.3799
upperneck 32.3317 7.18044 -7.83955
head 13.3886 3.82266 -4.37959
rclavicle 7.19236e-015 -6.75868e-015
rhumerus -9.11054 3.28031 -82.7558
rradius 54.3464
rwrist -46.4647
rhand -13.3561 -21.4878
rfingers 7.12502
rthumb 12.7499 -51.0785
lclavicle 7.19236e-015 -6.75868e-015
lhumerus -26.7886 -9.4478 80.6644
lradius 85.6116
lwrist 7.71022
lhand -12.4421 20.2672
lfingers 7.12502
lthumb 13.6309 49.8009
rfemur -33.8272 -5.45909 13.8068
rtibia 56.0974
rfoot -14.8955 -6.14575
rtoes -11.6663
lfemur -10.7445 -4.00303 -20.9983
ltibia 24.3986
lfoot -23.1552 22.1791
ltoes 0.234773
1419
root 2.62867 15.5255 6.92698 11.7106 -8.89335 -0.676345
lowerback -0.86319 0.75408 -2.1394
upperback -5.44942 0.941879 -0.325155
thorax -5.17624 0.554918 0.82618
lowerneck -10.2988 5.31206 13.3692
upperneck 32.3001 7.10289 -7.80433
head 13.3661 3.79062 -4.37414
rclavicle 1.96331e-014 1.43125e-014
rhumerus -8.0262 4.34339 -83.0417
rradius 55.6138
rwrist -46.7013
rhand -13.0628 -21.2117
rfingers 7.12502
rthumb 13.0326 -50.7845
lclavicle 1.96331e-014 1.43125e-014
lhumerus -25.947 -10.3596 80.7725
lradius 87.5869
lwrist 7.56794
lhand -12.8835 20.0634
lfingers 7.12502
lthumb 13.2055 49.6251
rfemur -34.6327 -5.56593 13.6749
rtibia 56.0739
rfoot -14.6764 -6.00046
rtoes -11.5515
lfemur -10.5781 -3.99912 -20.8767
ltibia 24.2154
lfoot -23.0667 22.0565
ltoes -0.0988957
1420
root 2.60468 15.5279 6.95539 11.7383 -8.67278 -0.722682
lowerback -0.740298 0.748027 -2.1351
upperback -5.41435 0.929786 -0.366166
thorax -5.20818 0.547777 0.780384
lowerneck -10.3223 5.26555 13.3537
upperneck 32.2596 7.02276 -7.77298
head 13.3401 3.75616 -4.36943
rclavicle -1.47893e-014 2.70347e-014
rhumerus -6.97872 5.43589 -83.2965
rradius 56.9413
rwrist -46.9277
rhand -12.7637 -20.8734
rfingers 7.12502
rthumb 13.321 -50.4276
lclavicle -1.47893e-014 2.70347e-014
lhumerus -25.1267 -11.2702 80.9075
lradius 89.5482
lwrist 7.42443
lhand -13.2774 19.8707
lfingers 7.12502
lthumb 12.8258 49.4567
rfemur -35.3474 -5.64363 13.5518
rtibia 55.7304
rfoot -14.3688 -5.95012
rtoes -11.3604
lfemur -10.414 -4.01818 -20.7123
ltibia 24.0372
lfoot -22.9942 21.9245
ltoes -0.39148
1421
root 2.57864 15.5309 6.9852 11.7727 -8.41549 -0.791853
lowerback -0.60468 0.736118 -2.10499
upperback -5.37859 0.910536 -0.398248
thorax -5.24611 0.536182 0.729542
lowerneck -10.3604 5.21592 13.3321
upperneck 32.2136 6.93725 -7.74143
head 13.3139 3.71826 -4.36401
rclavicle -1.76111e-014 5.96354e-015
rhumerus -5.96441 6.55744 -83.5167
rradius 58.3289
rwrist -47.1498
rhand -12.5908 -20.5482
rfingers 7.12502
rthumb 13.4876 -50.0915
lclavicle -1.76111e-014 5.96354e-015
lhumerus -24.3268 -12.1911 81.0744
lradius 91.4965
lwrist 7.29209
lhand -13.668 19.6588
lfingers 7.12502
lthumb 12.4492 49.268
rfemur -35.9693 -5.68305 13.4279
rtibia 55.0816
rfoot -13.9724 -5.98064
rtoes -11.0964
lfemur -10.2555 -4.05241 -20.5086
ltibia 23.8635
lfoot -22.9222 21.7815
ltoes -0.688179
1422
root 2.55041 15.5343 7.0168 11.8077 -8.12262 -0.876773
lowerback -0.459486 0.71814 -2.05669
upperback -5.33823 0.883842 -0.422987
thorax -5.28428 0.520219 0.676421
lowerneck -10.4116 5.16418 13.306
upperneck 32.1598 6.84762 -7.70985
head 13.2865 3.67761 -4.35799
rclavicle -1.09332e-015 -7.95139e-016
rhumerus -4.97339 7.71037 -83.6937
rradius 59.7622
rwrist -47.3451
rhand -12.5326 -20.3638
rfingers 7.12502
rthumb 13.5437 -49.9033
lclavicle -1.09332e-015 -7.95139e-016
lhumerus -23.5484 -13.1345 81.2712
lradius 93.432
lwrist 7.17865
lhand -14.0802 19.4203
lfingers 7.12502
lthumb 12.0517 49.0533
rfemur -36.4888 -5.67612 13.2877
rtibia 54.1481
rfoot -13.4699 -6.07232
rtoes -10.7317
lfemur -10.0928 -4.1023 -20.2741
ltibia 23.6901
lfoot -22.8496 21.6306
ltoes -0.996944
1423
root 2.51941 15.5382 7.04937 11.8568 -7.79568 -0.971681
lowerback -0.30501 0.694435 -2.00903
upperback -5.30254 0.849682 -0.43862
thorax -5.33275 0.500917 0.633325
lowerneck -10.4701 5.1103 13.2734
upperneck 32.0965 6.7534 -7.67293
head 13.2555 3.63451 -4.34891
rclavicle -8.94531e-016 9.14409e-015
rhumerus -4.00373 8.88934 -83.8226
rradius 61.2224
rwrist -47.4955
rhand -12.4598 -20.2263
rfingers 7.12502
rthumb 13.6139 -49.7611
lclavicle -8.94531e-016 9.14409e-015
lhumerus -22.7988 -14.1076 81.5029
lradius 95.3559
lwrist 7.07914
lhand -14.538 19.1481
lfingers 7.12502
lthumb 11.6103 48.8065
rfemur -36.9291 -5.60482 13.1202
rtibia 52.9589
rfoot -12.8447 -6.21985
rtoes -10.2793
lfemur -9.94595 -4.16417 -20.0105
ltibia 23.5131
lfoot -22.762 21.4719
ltoes -1.3343
1424
root 2.48562 15.5421 7.08342 11.9114 -7.43939 -1.07038
lowerback -0.143893 0.665601 -1.96824
upperback -5.26416 0.808785 -0.44723
thorax -5.38237 0.478751 0.60171
lowerneck -10.5494 5.05427 13.2278
upperneck 32.0307 6.65226 -7.62366
head 13.2261 3.58782 -4.33324
rclavicle 8.67198e-015 -1.63003e-014
rhumerus -3.03541 10.0913 -83.9032
rradius 62.6932
rwrist -47.586
rhand -12.3632 -20.1432
rfingers 7.12502
rthumb 13.707 -49.6717
lclavicle 8.67198e-015 -1.63003e-014
lhumerus -22.0655 -15.1238 81.7603
lradius 97.2596
lwrist 6.99572
lhand -15.0632 18.8459
lfingers 7.12502
lthumb 11.1038 48.5321
rfemur -37.2847 -5.46411 12.9111
rtibia 51.5454
rfoot -12.1062 -6.41041
rtoes -9.74288
lfemur -9.80049 -4.23654 -19.7265
ltibia 23.3275
lfoot -22.6637 21.3074
ltoes -1.69762
